<svg xmlns="http://www.w3.org/2000/svg" viewBox="0 0 100 100" width="512" height="512">
  <rect
    shape-rendering="geometricPrecision"
    width="100" height="100"
    x="0" y="0" rx="23.4375"
    stroke="#000000" stroke-width="0"
    fill="#000000"
  />
    <g transform="translate(0 0) scale(1)">
      <path d="M63 10L44 10Q61-36 94-75Q127-115 174-141L278-315Q227-340 193-389Q159-439 159-508Q159-584 198-640Q236-696 299-727Q361-758 432-758Q526-758 606-706L672-762L694-744L677-725Q664-707 659-685Q653-663 653-634L653-252Q653-202 660-167Q666-132 696-109L730-137L759-104L626 3Q558-42 506-103L394-7Q326-65 237-65Q188-65 142-45Q96-25 63 10M214-480Q214-431 235-393Q255-356 287-331L475-646Q439-660 401-660Q348-660 306-636Q263-613 239-572Q214-532 214-480M501-634L340-364L524-364L524-620Q513-628 501-634M524-261L280-261L286-272L219-160Q261-174 307-174Q393-174 464-127L524-178" fill="#ffffff" fill-rule="evenodd" transform="translate(11 87) scale(0.0975) "/>
    </g>
</svg>